<?xml version="1.0" encoding="iso-8859-1"?>
<!-- Generator: Adobe Illustrator 16.0.0, SVG Export Plug-In . SVG Version: 6.00 Build 0)  -->
<!DOCTYPE svg PUBLIC "-//W3C//DTD SVG 1.1//EN" "http://www.w3.org/Graphics/SVG/1.1/DTD/svg11.dtd">
<svg version="1.1" id="Capa_1" xmlns="http://www.w3.org/2000/svg" xmlns:xlink="http://www.w3.org/1999/xlink" x="0px" y="0px"
	 width="121.424px" height="121.424px" viewBox="0 0 121.424 121.424" style="enable-background:new 0 0 121.424 121.424;"
	 xml:space="preserve">
<g>
	<path d="M83.56,13.211c-5.951-2.82-13.062-0.283-15.883,5.668s-0.283,13.062,5.667,15.883c0.131,0.062,0.264,0.106,0.396,0.163
		l-3.423,1.315l-1.404-3.973c-0.895-0.183-1.822-0.277-2.752-0.278c-3.478-4.992-4.732-10.909-4.442-12.463
		c0.358-1.311,2.66-7.972,12.908-10.391c2.488-0.587,4.03-3.081,3.442-5.569s-3.083-4.029-5.57-3.442
		C57.151,3.747,53.384,14.893,52.786,17.089c-1.101,4.038,0.614,11.855,4.694,18.528c-0.523,0.609-0.985,1.289-1.352,2.061
		L44.854,61.465c-0.664,1.398-0.945,2.841-0.911,4.261c-0.307,0.48-0.547,1.015-0.696,1.597l-12.032,47.279
		c-0.745,2.929,1.025,5.907,3.953,6.652c0.453,0.115,0.906,0.17,1.354,0.17c2.442,0,4.668-1.648,5.298-4.124l10.371-40.754
		c1.235,0.492,2.522,0.805,3.81,0.93l9.105,39.698c0.581,2.534,2.834,4.25,5.328,4.25c0.404,0,0.816-0.045,1.228-0.14
		c2.945-0.676,4.786-3.61,4.11-6.557l-8.866-38.656c0.331,0.074,0.669,0.122,1.011,0.122c0.717,0,1.445-0.167,2.126-0.52
		c7.156-3.708,11.585-8.63,13.165-14.632c1.731-6.577-0.1-14.063-5.442-22.252c-0.16-0.246-0.345-0.466-0.541-0.67
		c-0.64-1.013-1.412-1.944-2.281-2.749c5.574,1.725,11.711-0.85,14.283-6.276C92.048,23.144,89.51,16.032,83.56,13.211z
		 M74.254,58.686c-0.532,2.022-1.787,3.892-3.72,5.594l4.039-8.521C74.597,56.79,74.495,57.768,74.254,58.686z"/>
</g>
<g>
</g>
<g>
</g>
<g>
</g>
<g>
</g>
<g>
</g>
<g>
</g>
<g>
</g>
<g>
</g>
<g>
</g>
<g>
</g>
<g>
</g>
<g>
</g>
<g>
</g>
<g>
</g>
<g>
</g>
</svg>
