<?xml version="1.0" encoding="utf-8"?>
<!-- Generator: Adobe Illustrator 16.0.0, SVG Export Plug-In . SVG Version: 6.00 Build 0)  -->
<!DOCTYPE svg PUBLIC "-//W3C//DTD SVG 1.1//EN" "http://www.w3.org/Graphics/SVG/1.1/DTD/svg11.dtd">
<svg version="1.1" id="Layer_1" xmlns="http://www.w3.org/2000/svg" xmlns:xlink="http://www.w3.org/1999/xlink" x="0px" y="0px"
	 width="269px" height="84px" viewBox="0 0 269 84" enable-background="new 0 0 269 84" xml:space="preserve">
<circle cx="683.875" cy="39.625" r="49.375"/>
<g>
	<path fill="#FFFFFF" d="M35.329,27.246c0-2.064-0.086-4.386-0.688-6.192c-0.602-1.72-1.548-2.924-3.01-2.924
		c-2.408,0.086-3.182,2.58-3.182,6.278c0,2.15,0.946,4.386,2.322,6.793c1.376,2.408,3.182,4.902,4.988,7.568
		c2.15,3.182,4.3,6.45,5.934,9.632c1.634,3.182,2.752,6.45,2.752,9.89c0,4.214-0.688,8.17-2.666,11.094s-5.16,4.816-10.234,4.816
		c-5.934,0-9.288-2.236-11.18-5.676c-1.892-3.44-2.322-7.998-2.322-12.728l9.116-0.86c0,2.666,0.086,5.332,0.774,7.31
		c0.602,2.064,1.634,3.44,3.612,3.44c2.752,0,3.784-2.924,3.784-6.966c0-2.063-1.032-4.472-2.408-6.966
		c-0.774-1.204-1.548-2.494-2.408-3.784c-1.806-2.58-3.784-5.504-5.848-8.686c-2.064-3.182-3.612-6.45-4.558-9.804
		c-0.516-1.634-0.774-3.354-0.774-5.074c0-3.44,0.774-7.138,2.752-9.976c1.978-2.752,4.988-4.73,9.374-4.816
		c5.59-0.086,8.858,2.236,10.664,5.59c1.806,3.44,2.322,7.654,2.322,11.18L35.329,27.246z"/>
	<path fill="#FFFFFF" d="M62.762,73.513h-7.224l-8.514-63.209h8.6l3.698,32.852l0.172,2.064h0.688l0.258-2.064l3.956-32.852h6.708
		l3.956,32.852l0.258,2.064h0.688l0.172-2.064l3.698-32.852h8.6l-8.514,63.209h-7.224l-4.3-29.928l-0.516-3.698h-0.344l-0.516,3.698
		L62.762,73.513z"/>
	<path fill="#FFFFFF" d="M92.948,10.304h21.242v9.546h-11.954v16.598h8.6v10.148h-8.6v17.372h11.954v9.546H92.948V10.304z"/>
	<path fill="#FFFFFF" d="M116.941,73.513l9.546-63.209h11.352l9.545,63.209h-9.03l-1.72-12.9h-8.944l-1.72,12.9H116.941z
		 M132.679,30.857l-0.258-1.634h-0.516l-0.258,1.634l-2.666,19.952h6.364L132.679,30.857z"/>
	<path fill="#FFFFFF" d="M146.526,19.85v-9.546h26.832v9.546h-8.771v53.663h-9.288V19.85H146.526z"/>
	<path fill="#FFFFFF" d="M176.969,73.513V10.304h8.17c5.504,0,9.804,1.032,12.642,3.698c2.838,2.666,4.3,6.793,4.3,13.071
		c0,3.01-0.258,5.246-1.204,7.31c-0.946,2.064-2.408,3.784-4.558,5.762c2.322,1.29,4.042,3.698,5.418,7.74
		c0.688,1.978,1.032,4.558,1.032,7.74c0,4.73-0.86,8.944-3.01,12.212c-2.15,3.268-5.848,5.418-11.352,5.676H176.969z
		 M186.257,36.361c0.774,0,2.58,0.086,4.128-0.946c1.548-1.032,2.752-3.096,2.752-7.482c0-4.386-1.204-6.45-2.752-7.482
		c-1.548-1.032-3.354-0.946-4.128-0.946V36.361z M186.257,64.311c0.774,0,2.58,0.172,4.128-0.946
		c1.548-1.118,2.752-3.612,2.752-8.772c0-5.16-1.204-7.654-2.752-8.771c-1.548-1.118-3.354-0.946-4.128-0.946V64.311z"/>
	<path fill="#FFFFFF" d="M208.273,10.304h21.242v9.546h-11.954v16.598h8.6v10.148h-8.6v17.372h11.954v9.546h-21.242V10.304z"/>
	<path fill="#FFFFFF" d="M231.406,19.85v-9.546h26.832v9.546h-8.772v53.663h-9.288V19.85H231.406z"/>
</g>
<path stroke="#000000" stroke-miterlimit="10" d="M346.272,21.006c0-2.426-0.102-5.156-0.81-7.278
	c-0.707-2.022-1.818-3.437-3.538-3.437c-2.83,0.101-3.739,3.032-3.739,7.38c0,2.527,1.112,5.155,2.729,7.985
	c1.617,2.831,3.739,5.763,5.863,8.896c2.527,3.74,5.054,7.582,6.976,11.322c1.92,3.74,3.234,7.582,3.234,11.625
	c0,4.953-0.809,9.604-3.135,13.041c-2.324,3.437-6.065,5.661-12.029,5.661c-6.975,0-10.917-2.628-13.142-6.672
	c-2.224-4.043-2.729-9.401-2.729-14.961l10.716-1.011c0,3.134,0.102,6.268,0.91,8.593c0.707,2.426,1.92,4.043,4.245,4.043
	c3.234,0,4.448-3.437,4.448-8.188c0-2.425-1.214-5.256-2.83-8.188c-0.91-1.415-1.82-2.931-2.83-4.448
	c-2.124-3.033-4.448-6.47-6.874-10.21c-2.428-3.74-4.246-7.582-5.358-11.524c-0.606-1.92-0.91-3.943-0.91-5.964
	c0-4.044,0.91-8.391,3.236-11.727c2.323-3.234,5.862-5.56,11.017-5.661c6.57-0.101,10.414,2.628,12.536,6.571
	c2.123,4.043,2.729,8.997,2.729,13.142L346.272,21.006z"/>
<path stroke="#000000" stroke-width="2" stroke-miterlimit="10" d="M376.762,74.201h-7.223l-8.515-63.209h8.601l3.697,32.852
	l0.172,2.064h0.688l0.258-2.064l3.956-32.852h6.708l3.956,32.852l0.258,2.064h0.688l0.172-2.064l3.698-32.852h8.601l-8.515,63.209
	h-7.224l-4.3-29.928l-0.517-3.698h-0.344l-0.516,3.698L376.762,74.201z"/>
<path stroke="#000000" stroke-width="2" stroke-miterlimit="10" d="M408.948,10.992h21.241v9.546h-11.953v16.598h8.6v10.148h-8.6
	v17.372h11.953v9.546h-21.241V10.992z"/>
<path stroke="#000000" stroke-width="2" stroke-miterlimit="10" d="M435.941,74.201l9.546-63.209h11.353l9.545,63.209h-9.029
	l-1.721-12.9h-8.943l-1.721,12.9H435.941z M451.68,31.545l-0.258-1.634h-0.517l-0.258,1.634l-2.666,19.952h6.364L451.68,31.545z"/>
<path stroke="#000000" stroke-width="2" stroke-miterlimit="10" d="M467.525,20.538v-9.546h26.832v9.546h-8.771v53.663h-9.288
	V20.538H467.525z"/>
<path d="M499.969,76.201V3.658h9.376c6.317,0,11.253,1.185,14.51,4.244c3.257,3.059,4.935,7.797,4.935,15.001
	c0,3.455-0.297,6.021-1.382,8.39c-1.086,2.369-2.764,4.343-5.231,6.613c2.665,1.48,4.64,4.244,6.218,8.883
	c0.79,2.27,1.185,5.23,1.185,8.883c0,5.428-0.987,10.264-3.454,14.015c-2.467,3.75-6.711,6.218-13.028,6.514H499.969z
	 M510.628,33.563c0.89,0,2.962,0.099,4.738-1.085c1.777-1.185,3.158-3.553,3.158-8.587s-1.381-7.402-3.158-8.586
	c-1.776-1.185-3.849-1.085-4.738-1.085V33.563z M510.628,65.64c0.89,0,2.962,0.197,4.738-1.086
	c1.777-1.283,3.158-4.145,3.158-10.067c0-5.921-1.381-8.784-3.158-10.066c-1.776-1.283-3.849-1.086-4.738-1.086V65.64z"/>
<path stroke="#000000" stroke-width="2" stroke-miterlimit="10" d="M534.273,10.992h21.241v9.546h-11.954v16.598h8.6v10.148h-8.6
	v17.372h11.954v9.546h-21.241V10.992z"/>
<path stroke="#000000" stroke-width="2" stroke-miterlimit="10" d="M560.406,20.538v-9.546h26.832v9.546h-8.772v53.663h-9.288
	V20.538H560.406z"/>
<g>
	<path fill="#FFFFFF" d="M17.375,40.334c0.4,0-0.25,2.375,0.208,4.042c0.503,1.833,1.167,1.697,1.167,3.748c0,1.65-0.9,2.4-2.35,2.4
		c-1.55,0-2.45-0.9-2.45-3.2C13.95,43.873,17.025,40.334,17.375,40.334z"/>
</g>
<g>
	<path fill="#FFFFFF" d="M16.375,14.525c0.36,0.175-1.474,1.942-1.792,3.641c-0.35,1.868,0.515,2.121-0.384,3.964
		c-0.723,1.483-2.536,1.604-3.839,0.969c-1.394-0.679-1.799-2.057-0.792-4.125C11.08,15.873,16.061,14.372,16.375,14.525z"/>
</g>
<g>
	<path fill="#FFFFFF" d="M19.122,43.709c-0.497,1.514-0.089,2.417,0.932,2.746c0.955,0.307,1.84,0.129,2.196-0.956
		c0.469-1.428,0.188-1.564,0.25-2.812c0.059-1.194,0.451-3.103,0.188-3.188C21.523,39.128,19.77,41.737,19.122,43.709z"/>
</g>
<g>
	<path d="M324.806,40.048c0.497,0-0.311,2.947,0.258,5.015c0.624,2.273,1.448,2.105,1.448,4.649c0,2.047-1.117,2.978-2.915,2.978
		c-1.924,0-3.04-1.117-3.04-3.97C320.557,44.439,324.372,40.048,324.806,40.048z"/>
</g>
<g>
	<path d="M323.565,8.027c0.446,0.218-1.827,2.409-2.224,4.518c-0.435,2.317,0.639,2.631-0.477,4.918
		c-0.896,1.84-3.146,1.991-4.764,1.203c-1.729-0.843-2.231-2.552-0.981-5.118C316.996,9.7,323.175,7.837,323.565,8.027z"/>
</g>
<g>
	<path d="M326.972,44.236c-0.615,1.878-0.108,2.999,1.157,3.407c1.184,0.381,2.284,0.161,2.726-1.186
		c0.581-1.772,0.233-1.94,0.31-3.49c0.073-1.481,0.56-3.849,0.232-3.955C329.953,38.553,327.776,41.789,326.972,44.236z"/>
</g>
<path fill="#FFFFFF" stroke="#FFFFFF" stroke-miterlimit="10" d="M689.022,21.007c0-2.426-0.102-5.156-0.81-7.278
	c-0.707-2.022-1.818-3.437-3.538-3.437c-2.83,0.101-3.739,3.032-3.739,7.38c0,2.527,1.112,5.155,2.729,7.985
	c1.617,2.831,3.739,5.763,5.863,8.896c2.527,3.74,5.054,7.582,6.976,11.322c1.92,3.74,3.234,7.582,3.234,11.625
	c0,4.953-0.809,9.604-3.135,13.041c-2.324,3.437-6.065,5.661-12.029,5.661c-6.975,0-10.917-2.628-13.142-6.672
	c-2.224-4.043-2.729-9.401-2.729-14.961l10.716-1.011c0,3.134,0.102,6.268,0.91,8.593c0.707,2.426,1.92,4.043,4.245,4.043
	c3.234,0,4.448-3.437,4.448-8.188c0-2.425-1.214-5.256-2.83-8.188c-0.91-1.415-1.82-2.931-2.83-4.448
	c-2.124-3.033-4.448-6.47-6.874-10.21c-2.428-3.74-4.246-7.582-5.358-11.524c-0.606-1.92-0.91-3.943-0.91-5.964
	c0-4.044,0.91-8.391,3.236-11.727c2.323-3.234,5.862-5.56,11.017-5.661c6.57-0.101,10.414,2.628,12.536,6.571
	c2.123,4.043,2.729,8.997,2.729,13.142L689.022,21.007z"/>
<g>
	<path fill="#FFFFFF" d="M667.556,40.049c0.497,0-0.311,2.947,0.258,5.015c0.624,2.273,1.448,2.105,1.448,4.649
		c0,2.047-1.117,2.978-2.915,2.978c-1.924,0-3.04-1.117-3.04-3.97C663.307,44.44,667.122,40.049,667.556,40.049z"/>
</g>
<g>
	<path fill="#FFFFFF" d="M666.315,8.028c0.446,0.218-1.827,2.409-2.224,4.518c-0.435,2.317,0.639,2.631-0.477,4.918
		c-0.896,1.84-3.146,1.991-4.764,1.203c-1.729-0.843-2.231-2.552-0.981-5.118C659.746,9.701,665.925,7.838,666.315,8.028z"/>
</g>
<g>
	<path fill="#FFFFFF" d="M669.722,44.237c-0.615,1.878-0.108,2.999,1.157,3.407c1.184,0.381,2.284,0.161,2.726-1.186
		c0.581-1.772,0.233-1.94,0.31-3.49c0.073-1.481,0.56-3.849,0.232-3.955C672.703,38.553,670.526,41.79,669.722,44.237z"/>
</g>
</svg>
