<?xml version="1.0" encoding="iso-8859-1"?>
<!-- Generator: Adobe Illustrator 18.1.1, SVG Export Plug-In . SVG Version: 6.00 Build 0)  -->
<svg version="1.1" id="Capa_1" xmlns="http://www.w3.org/2000/svg" xmlns:xlink="http://www.w3.org/1999/xlink" x="0px" y="0px"
	 viewBox="0 0 56.829 56.829" style="enable-background:new 0 0 56.829 56.829;" xml:space="preserve">
<g>
	<g>
		<path style="fill:#010002;" d="M10.452,26.71C4.689,26.71,0,31.398,0,37.161s4.689,10.452,10.452,10.452
			c5.762,0,10.451-4.688,10.451-10.452S16.213,26.71,10.452,26.71z M10.452,45.295c-4.485,0-8.134-3.648-8.134-8.134
			s3.649-8.133,8.134-8.133s8.133,3.647,8.133,8.133S14.937,45.295,10.452,45.295z"/>
		<path style="fill:#010002;" d="M46.377,26.71c-5.762,0-10.45,4.688-10.45,10.451s4.688,10.452,10.45,10.452
			c5.764,0,10.452-4.688,10.452-10.452S52.14,26.71,46.377,26.71z M46.377,45.295c-4.484,0-8.133-3.648-8.133-8.134
			s3.648-8.133,8.133-8.133s8.135,3.647,8.135,8.133S50.862,45.295,46.377,45.295z"/>
		<path style="fill:#010002;" d="M35.658,22.448c1.226,0.27,2.271-0.004,3.074-0.579c0.809,0.979,1.623,1.952,2.447,2.919
			c0.359,0.622,1.023,1.044,1.795,1.044h3.77c1.146,0,2.078-0.929,2.078-2.078c0-1.149-0.932-2.08-2.078-2.08h-2.349
			c-1.617-1.899-3.202-3.829-4.782-5.759c-0.241-0.294-0.564-0.472-0.916-0.567c-0.291-0.148-0.615-0.27-0.985-0.352
			c-4.786-1.053-9.571-2.106-14.357-3.16c-2.514-0.553-4.275,1.177-4.719,3.123c-0.37,0.57-0.528,1.28-0.385,2l4.512,22.57
			c0.256,1.284,1.385,2.174,2.648,2.174c0.177,0,0.354-0.018,0.533-0.054c1.465-0.293,2.415-1.718,2.122-3.182l-0.524-2.616
			c0.306,0.116,0.63,0.186,0.963,0.186c0.323,0,0.652-0.058,0.971-0.182c5.54-2.131,6.359-5.724,6.354-7.677
			c-0.004-2.126-0.972-4.276-2.495-6.242C34.109,22.107,34.883,22.278,35.658,22.448z M27.534,30.807
			c-0.34,0.131-0.637,0.324-0.887,0.562l-1.984-9.921c3.185,1.967,5.756,4.826,5.758,6.744
			C30.423,29.189,29.453,30.069,27.534,30.807z"/>
		<circle style="fill:#010002;" cx="45.862" cy="13.724" r="4.508"/>
	</g>
</g>
<g>
</g>
<g>
</g>
<g>
</g>
<g>
</g>
<g>
</g>
<g>
</g>
<g>
</g>
<g>
</g>
<g>
</g>
<g>
</g>
<g>
</g>
<g>
</g>
<g>
</g>
<g>
</g>
<g>
</g>
</svg>
